<svg xmlns="http://www.w3.org/2000/svg" version="1.1" xmlns:xlink="http://www.w3.org/1999/xlink" xmlns:svgjs="http://svgjs.dev/svgjs" width="1500" height="481" viewBox="0 0 1500 481"><g transform="matrix(1,0,0,1,-0.9090909090909918,-0.2147099396345027)"><svg viewBox="0 0 396 127" data-background-color="#ffffff" preserveAspectRatio="xMidYMid meet" height="481" width="1500" xmlns="http://www.w3.org/2000/svg" xmlns:xlink="http://www.w3.org/1999/xlink"><g id="tight-bounds" transform="matrix(1,0,0,1,0.2400000000000091,0.05669056618208401)"><svg viewBox="0 0 395.52 126.8866188676358" height="126.8866188676358" width="395.52"><g><svg viewBox="0 0 761.9203062542864 244.43135999999998" height="126.8866188676358" width="395.52"><g><rect width="19.560091296867093" height="217.9825548387096" x="295.63578747870963" y="13.22440258064519" fill="#3188e7" opacity="1" stroke-width="0" stroke="transparent" fill-opacity="1" class="rect-yte-0" data-fill-palette-color="primary" rx="1%" id="yte-0" data-palette-color="#3188e7"></rect></g><g transform="matrix(1,0,0,1,366.40030625428636,13.7666477419355)"><svg viewBox="0 0 395.52 216.89806451612898" height="216.89806451612898" width="395.52"><g id="textblocktransform"><svg viewBox="0 0 395.52 216.89806451612898" height="216.89806451612898" width="395.52" id="textblock"><g><svg viewBox="0 0 395.52 216.89806451612898" height="216.89806451612898" width="395.52"><g transform="matrix(1,0,0,1,0,0)"><svg width="395.52" viewBox="0.5 -32.5 60.45 33.15" height="216.89806451612898" data-palette-color="#3188e7"><g class="wordmark-text-0" data-fill-palette-color="primary" id="text-0"><path d="M25.7 0.55L25.7 0.55Q24.15 0.55 23.08-0.78 22-2.1 21-5.15L21-5.15Q20.5-6.65 20.18-8.08 19.85-9.5 19.7-10.85L19.7-10.85Q19.05-9.85 18.53-9.53 18-9.2 17-9.2L17-9.2Q14.55-9.2 11.8-9.28 9.05-9.35 6.9-9.4L6.9-9.4Q6.8-8.5 6.73-7.58 6.65-6.65 6.65-5.75L6.65-5.75Q6.65-4.95 6.73-4.15 6.8-3.35 6.85-2.6L6.85-2.6Q7-1.2 5.75-0.35 4.5 0.5 2.65 0.5L2.65 0.5Q1.05 0.5 1.05-0.9L1.05-0.9Q1.05-1.75 1.5-3.45L1.5-3.45Q1.75-4.6 1.9-5.43 2.05-6.25 2.05-6.75L2.05-6.75Q2.05-8.15 1.2-8.65L1.2-8.65Q0.5-9.05 0.5-9.7L0.5-9.7Q0.5-10.3 0.78-11.15 1.05-12 1.5-12.73 1.95-13.45 2.35-13.75L2.35-13.75Q2.7-13.95 3.2-14.1 3.7-14.25 4.45-14.3L4.45-14.3Q6.4-19.9 8.83-23.98 11.25-28.05 14-30.28 16.75-32.5 19.6-32.5L19.6-32.5Q21.35-32.5 22.15-31.33 22.95-30.15 22.95-27.4L22.95-27.4 22.95-25.15Q22.95-20.1 23.7-15.85 24.45-11.6 25.55-8.95L25.55-8.95Q26.65-6.15 28.6-4.35L28.6-4.35Q29.2-3.85 29.4-3.48 29.6-3.1 29.6-2.7L29.6-2.7Q29.6-1.95 29.03-1.2 28.45-0.45 27.55 0.05 26.65 0.55 25.7 0.55ZM8.4-14.6L8.4-14.6Q10.85-14.7 12.7-14.78 14.55-14.85 15.8-14.85L15.8-14.85 19.3-14.85Q19.2-16.25 19.13-17.8 19.05-19.35 19.05-21.05L19.05-21.05 19.05-23.95Q19.05-25.4 18.73-25.88 18.4-26.35 17.5-26.35L17.5-26.35Q15.05-26.35 12.6-23.15 10.15-19.95 8.4-14.6ZM44.35 0.65L44.35 0.65Q40.9 0.65 38.15-0.9 35.4-2.45 33.8-5.4 32.2-8.35 32.2-12.55L32.2-12.55Q32.2-16.35 33.47-19.88 34.75-23.4 37.1-26.23 39.45-29.05 42.8-30.7 46.15-32.35 50.25-32.35L50.25-32.35Q53.25-32.35 55.25-31.4 57.25-30.45 57.25-28.6L57.25-28.6Q57.25-27.7 56.77-26.83 56.3-25.95 55.55-25.35 54.8-24.75 54-24.75L54-24.75Q53.5-24.75 53.2-25L53.2-25Q50.6-26.75 47.3-26.75L47.3-26.75Q43.8-26.75 41.4-25.13 39-23.5 37.77-20.85 36.55-18.2 36.55-15.1L36.55-15.1Q36.55-10.45 39.17-7.7 41.8-4.95 46.2-4.95L46.2-4.95Q48.1-4.95 49.75-5.5 51.4-6.05 52.45-7.1 53.5-8.15 53.5-9.65L53.5-9.65Q53.5-11.15 52.6-11.95 51.7-12.75 50.25-13.13 48.8-13.5 47.1-13.6L47.1-13.6Q45.9-13.7 45.32-13.9 44.75-14.1 44.75-15.1L44.75-15.1Q44.75-16.3 45.5-17.1 46.25-17.9 47.35-18L47.35-18Q48.85-18.15 50.95-18.23 53.05-18.3 55.32-18.32 57.6-18.35 59.6-18.35L59.6-18.35Q60.25-18.35 60.6-18.13 60.95-17.9 60.95-17.2L60.95-17.2Q60.95-16.35 60.57-15.35 60.2-14.35 59.55-13.65 58.9-12.95 58.05-12.95L58.05-12.95 57.25-12.95Q57.4-12.45 57.52-11.83 57.65-11.2 57.65-10.4L57.65-10.4Q57.65-8.2 56.6-6.23 55.55-4.25 53.7-2.7 51.85-1.15 49.45-0.25 47.05 0.65 44.35 0.65Z" fill="#3188e7" data-fill-palette-color="primary"></path></g></svg></g></svg></g></svg></g></svg></g><g><svg viewBox="0 0 244.43135999999998 244.43135999999998" height="244.43135999999998" width="244.43135999999998"><g><svg xmlns="http://www.w3.org/2000/svg" xmlns:xlink="http://www.w3.org/1999/xlink" version="1.1" x="0" y="0" viewBox="1.1 1.1 97.80000000000001 97.80000000000001" enable-background="new 0 0 100 100" xml:space="preserve" height="244.43135999999998" width="244.43135999999998" class="icon-icon-0" data-fill-palette-color="accent" id="icon-0"><path d="M68.4 35.9L74 30.3C77.5 32 81.7 31.4 84.6 28.5 88.2 24.9 88.2 19 84.6 15.4S75.1 11.8 71.5 15.4C68.7 18.2 68.1 22.5 69.7 25.9L64 31.5C65.7 32.8 67.1 34.2 68.4 35.9M75.6 19.6C76.9 18.3 79 18.3 80.3 19.6S81.6 23 80.3 24.3A3.32 3.32 0 0 1 75.6 24.3 3.32 3.32 0 0 1 75.6 19.6M50 26.8C51.1 26.8 52.1 26.9 53.1 27V19.1C56.7 17.8 59.2 14.4 59.2 10.4 59.2 5.3 55 1.1 49.9 1.1S40.6 5.3 40.6 10.4C40.6 14.5 43.2 17.9 46.9 19.2V27C48 26.9 49 26.8 50 26.8M46.6 10.4C46.6 8.5 48.1 7 50 7S53.4 8.5 53.4 10.4 51.9 13.8 50 13.8C48.1 13.7 46.6 12.2 46.6 10.4M98.9 50C98.9 44.9 94.7 40.7 89.6 40.7 85.6 40.7 82.2 43.3 80.9 46.8H73C73.1 47.8 73.2 48.9 73.2 49.9S73.1 51.9 73 52.9H80.8C82.1 56.5 85.5 59.2 89.6 59.2 94.8 59.3 98.9 55.1 98.9 50M86.3 50C86.3 48.1 87.8 46.6 89.7 46.6S93.1 48.1 93.1 50 91.6 53.4 89.7 53.4 86.3 51.9 86.3 50M26 30.3L31.6 35.9C32.9 34.3 34.3 32.8 36 31.5L30.4 25.9C32 22.5 31.4 18.2 28.6 15.4 25 11.8 19.1 11.8 15.5 15.4S11.9 24.9 15.5 28.5C18.3 31.4 22.6 32 26 30.3M19.6 19.6C20.9 18.3 23 18.3 24.3 19.6S25.6 23 24.3 24.3A3.32 3.32 0 0 1 19.6 24.3 3.32 3.32 0 0 1 19.6 19.6M71.5 84.6C75.1 88.2 81 88.2 84.6 84.6S88.2 75.1 84.6 71.5C81.8 68.7 77.5 68.1 74.1 69.7L68.5 64C67.2 65.6 65.8 67.1 64.1 68.4L69.7 74C68 77.4 68.6 81.7 71.5 84.6M75.6 75.6C76.9 74.3 79 74.3 80.3 75.6S81.6 79 80.3 80.3A3.32 3.32 0 0 1 75.6 80.3C74.3 79.1 74.3 77 75.6 75.6M10.4 59.3C14.5 59.3 17.9 56.7 19.2 53H27C26.9 52 26.8 51 26.8 50 26.8 48.9 26.9 47.9 27 46.9H19.1A9.21 9.21 0 0 0 10.4 40.8C5.3 40.8 1.1 45 1.1 50.1 1.1 55.1 5.2 59.3 10.4 59.3M10.4 46.6C12.3 46.6 13.8 48.1 13.8 50S12.3 53.4 10.4 53.4 7 51.9 7 50 8.5 46.6 10.4 46.6M53.1 80.9V73C52.1 73.1 51 73.2 50 73.2S48 73.1 47 73V80.8C43.4 82.1 40.7 85.5 40.7 89.6 40.7 94.7 44.9 98.9 50 98.9S59.3 94.7 59.3 89.6C59.3 85.6 56.7 82.2 53.1 80.9M50 93C48.1 93 46.6 91.5 46.6 89.6S48.1 86.2 50 86.2 53.4 87.7 53.4 89.6 51.9 93 50 93M31.5 64L25.9 69.6C22.5 68 18.2 68.6 15.4 71.4 11.8 75 11.8 80.9 15.4 84.5S24.9 88.1 28.5 84.5C31.4 81.6 32 77.3 30.3 73.9L35.9 68.3C34.2 67.1 32.8 65.7 31.5 64M24.4 80.4A3.32 3.32 0 0 1 19.7 80.4 3.32 3.32 0 0 1 19.7 75.7C21 74.4 23.1 74.4 24.4 75.7S25.7 79.1 24.4 80.4M50 68.4C60.2 68.4 68.4 60.1 68.4 50 68.4 39.8 60.1 31.6 50 31.6S31.6 39.8 31.6 50 39.8 68.4 50 68.4M44.4 47.2L47.7 50.5 55.6 42.6 59 46.1 51.1 54 47.6 57.4 44.2 53.9 40.9 50.6z" fill="#d75b1e" data-fill-palette-color="accent"></path></svg></g></svg></g></svg></g><defs></defs></svg><rect width="395.52" height="126.8866188676358" fill="none" stroke="none" visibility="hidden"></rect></g></svg></g></svg>